<?xml version="1.0" encoding="UTF-8"?>
<svg id="Layer_2" data-name="Layer 2" xmlns="http://www.w3.org/2000/svg" viewBox="0 0 233.44 307.31">
  <defs>
    <style>
      .cls-1 {
        fill: #e2c6b7;
      }
    </style>
  </defs>
  <g id="Camada_1" data-name="Camada 1">
    <g>
      <g>
        <path class="cls-1" d="m112.17,194.63l-7.03-.15.61-28.23c.08-3.92.49-7.15,4.82-10.01,7.39-4.89,14.5-10.41,21.14-16.41,13.89-12.55,27.1-26.16,23-42.42-1.02-4.03-3.04-7.84-5.86-11.02-1.08-1.22-2.51-2.3-4.01-3.45-2.27-1.72-4.61-3.5-6.37-6.13-2.29-3.43-2.63-8.14-.94-12.93,1.11-3.16,2.88-5.83,4.58-8.41.26-.39.52-.78.77-1.18.92-1.42,1.7-2.69,2.3-3.95-2-.02-4.06.03-6.06.07-3.23.07-6.56.14-9.9-.04-4.45-.23-10.08-.13-14.02,2.78-3.38,2.5-5.55,7.38-5.38,12.14l-7.03.25c-.25-7.09,2.98-14.17,8.22-18.04,5.74-4.24,12.94-4.45,18.57-4.15,3.09.16,6.15.1,9.39.03,2.1-.04,4.28-.09,6.45-.07.18,0,.45-.02.73-.04,1.43-.1,3.2-.21,4.69.56,1.35.71,3.39,2.47,1.96,6.38-.05.14-.1.28-.16.43-.93,2.77-2.41,5.23-3.87,7.47-.26.4-.53.81-.8,1.21-1.54,2.33-2.99,4.54-3.82,6.88-.72,2.04-1.06,4.87.16,6.69,1.1,1.65,2.89,3.01,4.77,4.44,1.71,1.3,3.48,2.64,5.02,4.38,3.56,4.02,6.12,8.84,7.41,13.96,5.49,21.72-13.66,39.02-25.1,49.36-6.9,6.23-14.29,11.97-21.97,17.06-1.44.95-1.6,1.16-1.67,4.3l-.61,28.24Z"/>
        <path class="cls-1" d="m58.68,158.83c-1.6,0-2.63-.76-3.1-1.22-1.67-1.61-1.84-4.21-.44-6.96,1.23-2.42,2.53-5.05,4.1-8.27h0c1.05-2.16,2.09-4.33,3.14-6.52,3.69-7.71,7.51-15.67,11.72-23.29,5.82-10.54,11.84-20.6,21.37-27.69,5.76-4.29,12.64-8.53,19.99-7.48,5.89.85,8.82,4.05,10.24,6.6,3.12,5.59,1.89,12.98-.3,18.03-11.67,26.9-40.28,42.91-63.26,55.77-1.35.75-2.5,1.02-3.44,1.02Zm54.48-74.55c-4.47,0-9.31,3.12-13.51,6.25-8.41,6.26-13.77,15.23-19.41,25.45-4.11,7.44-7.88,15.31-11.53,22.93-1.05,2.2-2.1,4.38-3.15,6.55h0c-.56,1.16-1.09,2.24-1.6,3.27,20.99-11.85,45.09-26.69,54.98-49.48,1.88-4.34,2.13-9.09.61-11.81-.96-1.71-2.62-2.71-5.1-3.07-.42-.06-.85-.09-1.28-.09Z"/>
      </g>
      <g>
        <path class="cls-1" d="m231.88,305.75H1.56V116.72C1.56,53.22,53.22,1.56,116.72,1.56s115.16,51.66,115.16,115.16v189.03Zm-225.65-4.66h220.99V116.72c0-60.93-49.57-110.49-110.49-110.49S6.22,55.79,6.22,116.72v184.37Z"/>
        <path class="cls-1" d="m233.44,307.31H0V116.72C0,52.36,52.36,0,116.72,0s116.72,52.36,116.72,116.72v190.59Zm-230.31-3.12h227.19V116.72c0-62.64-50.96-113.59-113.59-113.59S3.12,54.08,3.12,116.72v187.47Zm225.65-1.54H4.66V116.72C4.66,54.93,54.93,4.66,116.72,4.66s112.06,50.27,112.06,112.06v185.93Zm-220.99-3.12h217.87V116.72c0-60.07-48.87-108.93-108.93-108.93S7.79,56.65,7.79,116.72v182.8Z"/>
      </g>
      <path class="cls-1" d="m55.24,208.29c-18.65,0-36.81-4.44-53.02-13.36l3.39-6.16c32.46,17.85,73.36,16.49,109.4-3.66,1.12-.63,2.24-1.27,3.35-1.92,7.61-4.44,15.15-9.46,22.44-14.32,13.73-9.14,27.92-18.6,43.65-24.96,11.54-4.67,28.74-10.43,44.76-6.49l-1.68,6.83c-14.04-3.45-29.81,1.87-40.45,6.18-15.07,6.1-28.96,15.35-42.39,24.3-7.38,4.91-15,9.99-22.79,14.54-1.15.67-2.3,1.33-3.47,1.98-20.28,11.34-42.06,17.04-63.2,17.04Z"/>
      <path class="cls-1" d="m225.11,260.84c-5.5-6.15-12.63-10.38-19.73-14.54-22.75-13.32-48.19-19.02-74.46-16.97-16.33,1.28-32.38,5.16-47.93,10.33-.77-2.21-1.54-4.41-2.3-6.62,15.5-5.45,31.44-8.88,47.72-10.91,27.08-2.88,54.5,3.7,78.24,16.77,6.12,3.37,12.07,7.13,17.6,11.41,2.63,2.04,6.66,4.89,7.54,8.38-1.61,1.45-3.23,2.91-4.85,4.36-.59-.76-1.2-1.49-1.83-2.2Z"/>
      <path class="cls-1" d="m228.29,297.39c-23.93-.56-44.67-6.13-63.39-17.02-6.21-3.61-12.29-7.59-18.16-11.44-7.86-5.14-15.99-10.46-24.37-14.85-38.65-20.24-84.03-22.32-115.63-5.3l-3.34-6.19c17.6-9.48,38.94-13.65,61.72-12.06,20.7,1.44,41.62,7.43,60.51,17.32,8.69,4.55,16.96,9.96,24.96,15.2,5.8,3.8,11.8,7.72,17.85,11.24,17.67,10.28,37.3,15.54,60.02,16.07l-.16,7.03Z"/>
    </g>
  </g>
</svg>