<?xml version="1.0" encoding="UTF-8"?>
<svg id="Layer_2" data-name="Layer 2" xmlns="http://www.w3.org/2000/svg" viewBox="0 0 230.32 307.31">
  <defs>
    <style>
      .cls-1 {
        fill: #eee6de;
      }

      .cls-2 {
        fill: #979a82;
      }

      .cls-3 {
        fill: #b86e58;
      }

      .cls-4 {
        fill: #616e5d;
      }

      .cls-5 {
        fill: #e2c6b7;
      }
    </style>
  </defs>
  <g id="Camada_1" data-name="Camada 1">
    <g>
      <path class="cls-3" d="m230.32,115.16v44.53c-11.07,6.67-68.14,41.05-69.46,42.04-1.46,1.1-124.33,19.01-124.33,19.01L0,195.16v-80C0,51.66,51.66,0,115.16,0s115.16,51.66,115.16,115.16Z"/>
      <g>
        <path class="cls-1" d="m161.69,94.79c-1.33-5.43-3.98-10.56-7.66-14.83-1.59-1.86-3.43-3.29-5.2-4.68-1.98-1.54-3.86-3.01-5.03-4.81-1.33-2.06-.98-5.21-.2-7.48.88-2.56,2.4-4.94,4.02-7.46.27-.43.55-.86.82-1.29,1.51-2.39,3.04-5.01,4-7.94.05-.17.11-.32.16-.47,1.35-3.75-.31-5.58-1.93-6.46-1.53-.82-3.36-.69-4.84-.59-.29.02-.56.03-.76.04-2.26-.02-4.53.03-6.72.07-3.38.08-6.57.14-9.79-.03-5.85-.31-13.33-.09-19.29,4.43-5.39,4.1-8.72,11.6-8.46,19.09l6.99-.24c-.18-5.21,2.11-10.55,5.71-13.28,4.14-3.15,10.02-3.26,14.67-3.01,3.49.18,6.96.11,10.32.04,2.14-.05,4.35-.1,6.49-.07.05-.01.1,0,.15,0-.66,1.49-1.54,2.99-2.61,4.68-.26.42-.53.84-.8,1.26-1.77,2.76-3.59,5.61-4.74,8.96-1.73,5.03-1.38,9.97.95,13.56,1.81,2.78,4.23,4.68,6.58,6.52,1.58,1.23,3.07,2.39,4.21,3.72,2.97,3.44,5.1,7.57,6.17,11.94,4.33,17.62-9.51,32.29-24.05,45.81-6.92,6.44-14.34,12.36-22.05,17.61-4.41,3.01-4.82,6.25-4.9,10.49l-.56,26.72-.07,3.56,6.99.14.14-6.55.49-23.72c.07-3.34.22-3.75,1.85-4.86,7.99-5.44,15.69-11.59,22.87-18.27,11.88-11.04,31.75-29.51,26.08-52.6Z"/>
        <path class="cls-1" d="m124.28,82.17c-1.47-2.61-4.47-5.91-10.45-6.79-7.64-1.12-14.78,3.41-20.77,7.99-9.89,7.58-16.15,18.34-22.2,29.62-4.38,8.15-8.35,16.68-12.2,24.94-1.1,2.35-2.19,4.68-3.28,7-1.61,3.42-2.97,6.24-4.27,8.88-1.41,2.86-1.23,5.53.49,7.15.48.45,1.51,1.18,3.08,1.18.97,0,2.15-.28,3.54-1.08,23.93-13.78,53.72-30.92,65.84-59.68,2.28-5.42,3.54-13.32.22-19.21Zm-6.66,16.49c-10.42,24.71-35.89,40.7-57.92,53.47.63-1.31,1.3-2.71,2.01-4.22,1.09-2.32,2.19-4.67,3.29-7.03,3.8-8.16,7.74-16.61,12.02-24.59,5.9-10.98,11.49-20.62,20.3-27.37,4.82-3.69,10.44-7.37,15.49-6.62,2.58.38,4.34,1.46,5.38,3.3,1.69,2.99,1.46,8.24-.57,13.06Z"/>
      </g>
      <path class="cls-5" d="m230.32,140.25v125.43l-94.43-3.28-101.83-3.54-34.06-1.19v-63.16c32.84,13.9,70.19,14.88,103.34,2.58,2.38-.88,4.73-1.82,7.06-2.85,8.99-3.92,17.62-8.87,25.69-14.85,8.36-6.19,16.95-12.09,25.8-17.53,19.7-12.11,45.18-22.5,68.43-21.61Z"/>
      <path class="cls-4" d="m230.32,262.83v44.14l-197.08-47.67s.28-.15.82-.44c3.95-2.1,21.69-11.24,44.75-19.04,21.89-7.39,48.56-13.56,72.77-11.31,43.3,4.02,70.21,26.19,78.74,34.32Z"/>
      <path class="cls-2" d="m230.32,299.85v7.46H0v-58.24c24.88-10.25,52.43-13.39,78.81-9.25,20.32,3.18,39.94,10.68,57.08,22.58.23.15.46.31.69.47,8.32,5.85,16.86,11.42,25.67,16.56,19.6,11.44,44.94,21.26,68.07,20.42Z"/>
    </g>
  </g>
</svg>