<?xml version="1.0" encoding="UTF-8"?>
<svg id="Layer_2" data-name="Layer 2" xmlns="http://www.w3.org/2000/svg" viewBox="0 0 472.57 220.79">
  <defs>
    <style>
      .cls-1 {
        fill: #eee6de;
      }

      .cls-2 {
        fill: #979a82;
      }

      .cls-3 {
        fill: #b86e58;
      }

      .cls-4 {
        fill: #616e5d;
      }

      .cls-5 {
        fill: #e2c6b7;
      }
    </style>
  </defs>
  <g id="Camada_1" data-name="Camada 1">
    <g>
      <path class="cls-3" d="m165.47,82.74v31.99c-7.95,4.79-48.95,29.49-49.9,30.2-1.05.79-89.32,13.66-89.32,13.66L0,140.21v-57.48C0,37.11,37.11,0,82.74,0s82.74,37.11,82.74,82.74Z"/>
      <g>
        <path class="cls-1" d="m116.17,68.1c-.96-3.9-2.86-7.59-5.5-10.65-1.14-1.34-2.46-2.36-3.74-3.36-1.42-1.11-2.77-2.16-3.61-3.46-.96-1.48-.7-3.74-.14-5.37.63-1.84,1.72-3.55,2.89-5.36.19-.31.4-.62.59-.93,1.08-1.72,2.18-3.6,2.87-5.7.04-.12.08-.23.11-.34.97-2.69-.22-4.01-1.39-4.64-1.1-.59-2.41-.5-3.48-.42-.21.01-.4.02-.55.03-1.62-.01-3.25.02-4.83.05-2.43.06-4.72.1-7.03-.02-4.2-.22-9.58-.06-13.86,3.18-3.87,2.95-6.27,8.33-6.08,13.72l5.02-.17c-.13-3.74,1.52-7.58,4.1-9.54,2.97-2.26,7.2-2.34,10.54-2.16,2.51.13,5,.08,7.41.03,1.54-.04,3.13-.07,4.66-.05.04,0,.07,0,.11,0-.47,1.07-1.11,2.15-1.88,3.36-.19.3-.38.6-.57.91-1.27,1.98-2.58,4.03-3.41,6.44-1.24,3.61-.99,7.16.68,9.74,1.3,2,3.04,3.36,4.73,4.68,1.14.88,2.21,1.72,3.02,2.67,2.13,2.47,3.66,5.44,4.43,8.58,3.11,12.66-6.83,23.2-17.28,32.91-4.97,4.63-10.3,8.88-15.84,12.65-3.17,2.16-3.46,4.49-3.52,7.54l-.4,19.2-.05,2.56,5.02.1.1-4.71.35-17.04c.05-2.4.16-2.69,1.33-3.49,5.74-3.91,11.27-8.33,16.43-13.13,8.54-7.93,22.81-21.2,18.74-37.79Z"/>
        <path class="cls-1" d="m89.29,59.03c-1.06-1.88-3.21-4.25-7.51-4.88-5.49-.8-10.62,2.45-14.92,5.74-7.11,5.45-11.6,13.18-15.95,21.28-3.15,5.86-6,11.98-8.77,17.92-.79,1.69-1.57,3.36-2.36,5.03-1.16,2.46-2.13,4.48-3.07,6.38-1.01,2.05-.88,3.97.35,5.14.35.32,1.08.85,2.21.85.7,0,1.54-.2,2.54-.78,17.19-9.9,38.59-22.21,47.3-42.88,1.64-3.89,2.54-9.57.16-13.8Zm-4.78,11.85c-7.49,17.75-25.78,29.24-41.61,38.42.45-.94.93-1.95,1.44-3.03.78-1.67,1.57-3.36,2.36-5.05,2.73-5.86,5.56-11.93,8.64-17.67,4.24-7.89,8.25-14.81,14.58-19.66,3.46-2.65,7.5-5.29,11.13-4.76,1.85.27,3.12,1.05,3.87,2.37,1.21,2.15,1.05,5.92-.41,9.38Z"/>
      </g>
      <path class="cls-5" d="m165.47,100.76v90.11l-67.84-2.36-73.16-2.54-24.47-.85v-45.38c23.59,9.99,50.43,10.69,74.24,1.85,1.71-.63,3.4-1.31,5.07-2.05,6.46-2.82,12.66-6.37,18.46-10.67,6.01-4.45,12.18-8.69,18.54-12.59,14.15-8.7,32.46-16.17,49.16-15.53Z"/>
      <path class="cls-4" d="m165.47,188.83v31.71L23.88,186.29s.2-.11.59-.32c2.84-1.51,15.58-8.08,32.15-13.68,15.73-5.31,34.89-9.74,52.28-8.13,31.11,2.89,50.44,18.82,56.57,24.66Z"/>
      <path class="cls-2" d="m165.47,215.43v5.36H0v-41.84c17.87-7.36,37.67-9.62,56.62-6.65,14.6,2.28,28.69,7.67,41.01,16.22.17.11.33.22.5.34,5.98,4.2,12.11,8.2,18.44,11.9,14.08,8.22,32.29,15.27,48.9,14.67Z"/>
    </g>
    <g>
      <path class="cls-3" d="m223.87,42.19c3.91,0,7.61.75,11.09,2.24,3.48,1.49,6.54,3.54,9.17,6.13,2.63,2.6,4.69,5.64,6.19,9.12,1.49,3.49,2.24,7.22,2.24,11.2s-.75,7.7-2.24,11.15c-1.49,3.45-3.56,6.49-6.19,9.12-2.63,2.63-5.69,4.69-9.17,6.19-3.49,1.49-7.18,2.24-11.09,2.24s-7.72-.75-11.2-2.24c-3.49-1.49-6.53-3.56-9.12-6.19-2.6-2.63-4.64-5.67-6.13-9.12-1.49-3.45-2.24-7.16-2.24-11.15s.75-7.72,2.24-11.2c1.49-3.48,3.54-6.52,6.13-9.12,2.6-2.6,5.64-4.64,9.12-6.13,3.48-1.49,7.22-2.24,11.2-2.24Zm0,2.35c-2.99,0-5.78.69-8.37,2.08-2.6,1.39-4.87,3.27-6.83,5.65-1.96,2.38-3.5,5.17-4.64,8.37-1.14,3.2-1.71,6.61-1.71,10.24s.57,7.04,1.71,10.24c1.14,3.2,2.68,5.97,4.64,8.32,1.96,2.35,4.23,4.21,6.83,5.6,2.59,1.39,5.39,2.08,8.37,2.08s5.78-.69,8.37-2.08c2.6-1.39,4.87-3.25,6.83-5.6,1.96-2.35,3.5-5.12,4.64-8.32,1.14-3.2,1.71-6.61,1.71-10.24s-.57-7.04-1.71-10.24c-1.14-3.2-2.69-5.99-4.64-8.37-1.96-2.38-4.23-4.27-6.83-5.65-2.6-1.39-5.39-2.08-8.37-2.08Zm-10.35-8.85c-.28-.5-.34-1.01-.16-1.55.18-.53.55-.94,1.12-1.23l8.21-3.95c.14-.14.43-.28.85-.43.5,0,.85.04,1.07.11,0,.07.07.11.21.11l8.43,4.16c.57.29.94.69,1.12,1.23.18.53.12,1.05-.16,1.55-.29.57-.68.94-1.17,1.12-.5.18-1.03.12-1.6-.16l-7.57-3.73-7.57,3.73c-.57.21-1.1.25-1.6.11-.5-.14-.89-.5-1.17-1.07Z"/>
      <path class="cls-3" d="m305.89,42.19c3.84,0,7.41.68,10.72,2.03,3.31,1.35,6.24,3.2,8.8,5.55.14.14.25.25.32.32.07.07.18.18.32.32h.11c.21.36.32.68.32.96,0,.78-.39,1.17-1.17,1.17-.5,0-.85-.18-1.07-.53-2.35-2.28-5.05-4.07-8.11-5.39-3.06-1.31-6.4-2.01-10.03-2.08h-.21c-2.99,0-5.78.69-8.37,2.08-2.6,1.39-4.87,3.27-6.83,5.65-1.96,2.38-3.5,5.17-4.64,8.37-1.14,3.2-1.71,6.61-1.71,10.24s.57,7.04,1.71,10.24c1.14,3.2,2.68,5.97,4.64,8.32,1.96,2.35,4.23,4.21,6.83,5.6,2.59,1.39,5.39,2.08,8.37,2.08h.11c3.63,0,7.02-.67,10.19-2.03,3.16-1.35,5.92-3.24,8.27-5.65.21-.21.5-.32.85-.32.78,0,1.17.39,1.17,1.17,0,.36-.11.64-.32.85-2.63,2.63-5.67,4.69-9.12,6.19-3.45,1.49-7.17,2.24-11.15,2.24s-7.72-.75-11.2-2.24c-3.49-1.49-6.53-3.56-9.12-6.19-2.6-2.63-4.64-5.67-6.13-9.12-1.49-3.45-2.24-7.16-2.24-11.15s.75-7.72,2.24-11.2c1.49-3.48,3.54-6.52,6.13-9.12,2.6-2.6,5.64-4.64,9.12-6.13,3.48-1.49,7.22-2.24,11.2-2.24Z"/>
      <path class="cls-3" d="m348.46,65.98c1.78,0,3.47.27,5.07.8s3.08,1.3,4.43,2.29c.21-.71.53-1.31.96-1.81.71-.71,1.55-1.07,2.51-1.07s1.76.36,2.4,1.07c.71.64,1.07,1.46,1.07,2.45v25.5c0,.92-.36,1.71-1.07,2.35-.64.71-1.44,1.07-2.4,1.07s-1.8-.36-2.51-1.07c-.43-.36-.75-.92-.96-1.71-2.77,1.99-5.94,2.99-9.49,2.99-2.28,0-4.41-.43-6.4-1.28-1.99-.85-3.73-2.03-5.23-3.52-1.49-1.49-2.67-3.24-3.52-5.23-.85-1.99-1.28-4.12-1.28-6.4s.43-4.41,1.28-6.4c.85-1.99,2.03-3.73,3.52-5.23,1.49-1.49,3.24-2.67,5.23-3.52,1.99-.85,4.12-1.28,6.4-1.28Zm9.49,6.08c-1.21-1.14-2.61-2.03-4.21-2.67-1.6-.64-3.29-.99-5.07-1.07h-.21c-1.28,0-2.49.37-3.63,1.12-1.14.75-2.13,1.76-2.99,3.04-.85,1.28-1.53,2.77-2.03,4.48-.5,1.71-.75,3.52-.75,5.44s.25,3.73.75,5.44c.5,1.71,1.17,3.2,2.03,4.48.85,1.28,1.85,2.29,2.99,3.04,1.14.75,2.35,1.12,3.63,1.12h.43c1.78-.07,3.43-.43,4.96-1.07,1.53-.64,2.9-1.49,4.11-2.56v-20.8Z"/>
      <path class="cls-3" d="m385.04,66.19c1.92,0,3.72.37,5.39,1.12,1.67.75,3.15,1.74,4.43,2.99,1.28,1.25,2.28,2.7,2.99,4.37.71,1.67,1.07,3.47,1.07,5.39v15.04c0,1-.3,1.81-.91,2.45-.6.64-1.41,1-2.4,1.07-1,.07-1.85-.25-2.56-.96-.71-.71-1.07-1.56-1.07-2.56v-15.04c0-1.56-.18-3.04-.53-4.43-.36-1.39-.85-2.61-1.49-3.68s-1.39-1.9-2.24-2.51c-.85-.6-1.74-.91-2.67-.91-2.63,0-4.94.78-6.93,2.35v24.32c-.14,1.92-1.14,3.06-2.99,3.41h-.75c-.85-.07-1.58-.41-2.19-1.01-.6-.6-.94-1.33-1.01-2.19v-25.71c0-.92.27-1.67.8-2.24.53-.57,1.17-.92,1.92-1.07.75-.14,1.49-.07,2.24.21.75.28,1.3.82,1.65,1.6,2.28-1.35,4.69-2.03,7.25-2.03Z"/>
      <path class="cls-3" d="m406.38,50.51c0-.99.32-1.83.96-2.51.64-.67,1.46-1.01,2.45-1.01s1.83.34,2.51,1.01c.67.68,1.01,1.51,1.01,2.51v16.53h7.04c.78,0,1.17.36,1.17,1.07,0,.78-.39,1.17-1.17,1.17h-7.04v13.23c0,1.92.25,3.72.75,5.39.5,1.67,1.15,3.13,1.97,4.37.82,1.24,1.78,2.22,2.88,2.93,1.1.71,2.29,1.07,3.57,1.07.78,0,1.17.39,1.17,1.17s-.39,1.17-1.17,1.17c-2.21,0-4.29-.43-6.24-1.28-1.96-.85-3.66-2.01-5.12-3.47-1.46-1.46-2.61-3.16-3.47-5.12-.85-1.95-1.28-4.03-1.28-6.24v-32Z"/>
      <path class="cls-3" d="m442.33,65.98c2.28,0,4.41.43,6.4,1.28,1.99.85,3.73,2.03,5.23,3.52s2.67,3.24,3.52,5.23c.85,1.99,1.28,4.12,1.28,6.4s-.43,4.41-1.28,6.4c-.85,1.99-2.03,3.73-3.52,5.23s-3.24,2.67-5.23,3.52c-1.99.85-4.13,1.28-6.4,1.28s-4.41-.43-6.4-1.28c-1.99-.85-3.73-2.03-5.23-3.52-1.49-1.49-2.67-3.24-3.52-5.23-.85-1.99-1.28-4.12-1.28-6.4s.43-4.41,1.28-6.4c.85-1.99,2.03-3.73,3.52-5.23,1.49-1.49,3.24-2.67,5.23-3.52,1.99-.85,4.12-1.28,6.4-1.28Zm0,2.35c-1.28,0-2.49.37-3.63,1.12-1.14.75-2.13,1.76-2.99,3.04-.85,1.28-1.53,2.77-2.03,4.48-.5,1.71-.75,3.52-.75,5.44s.25,3.73.75,5.44c.5,1.71,1.17,3.2,2.03,4.48.85,1.28,1.85,2.29,2.99,3.04,1.14.75,2.35,1.12,3.63,1.12s2.49-.37,3.63-1.12c1.14-.75,2.13-1.76,2.99-3.04.85-1.28,1.53-2.77,2.03-4.48.5-1.71.75-3.52.75-5.44s-.25-3.73-.75-5.44c-.5-1.71-1.17-3.2-2.03-4.48-.85-1.28-1.85-2.29-2.99-3.04-1.14-.75-2.35-1.12-3.63-1.12Z"/>
      <path class="cls-3" d="m211.6,145.53c1.78,0,3.47.27,5.07.8s3.08,1.26,4.43,2.19v-22.4c0-.99.32-1.83.96-2.51.64-.68,1.46-1.01,2.45-1.01s1.83.34,2.51,1.01c.67.68,1.01,1.51,1.01,2.51v48.75c0,1-.34,1.81-1.01,2.45-.68.64-1.51.96-2.51.96-.92,0-1.69-.27-2.29-.8-.6-.53-.98-1.23-1.12-2.08-2.77,1.99-5.94,2.99-9.49,2.99-2.28,0-4.41-.43-6.4-1.28-1.99-.85-3.73-2.03-5.23-3.52-1.49-1.49-2.67-3.24-3.52-5.23-.85-1.99-1.28-4.12-1.28-6.4s.43-4.41,1.28-6.4c.85-1.99,2.03-3.73,3.52-5.23,1.49-1.49,3.24-2.67,5.23-3.52,1.99-.85,4.12-1.28,6.4-1.28Zm9.49,6.08c-1.21-1.14-2.61-2.03-4.21-2.67-1.6-.64-3.29-.99-5.07-1.07h-.21c-1.28,0-2.49.37-3.63,1.12-1.14.75-2.13,1.76-2.99,3.04-.85,1.28-1.53,2.77-2.03,4.48-.5,1.71-.75,3.52-.75,5.44s.25,3.73.75,5.44c.5,1.71,1.17,3.2,2.03,4.48.85,1.28,1.85,2.29,2.99,3.04,1.14.75,2.35,1.12,3.63,1.12h.43c1.78-.07,3.43-.43,4.96-1.07,1.53-.64,2.9-1.49,4.11-2.56v-20.8Z"/>
      <path class="cls-3" d="m250.85,178.38c-2.28,0-4.41-.43-6.4-1.28-1.99-.85-3.73-2.03-5.23-3.52-1.49-1.49-2.67-3.24-3.52-5.23-.85-1.99-1.28-4.12-1.28-6.4s.43-4.41,1.28-6.4c.85-1.99,2.03-3.73,3.52-5.23,1.49-1.49,3.24-2.67,5.23-3.52,1.99-.85,4.12-1.28,6.4-1.28s4.41.43,6.4,1.28c1.99.85,3.73,2.03,5.23,3.52,1.49,1.49,2.67,3.24,3.52,5.23.85,1.99,1.28,4.12,1.28,6.4,0,.43-.02.84-.05,1.23-.04.39-.09.77-.16,1.12h-23.15c-.78,0-1.17-.39-1.17-1.17s.39-1.17,1.17-1.17h16.32c0-1.92-.25-3.73-.75-5.44-.5-1.71-1.17-3.2-2.03-4.48-.85-1.28-1.85-2.29-2.99-3.04-1.14-.75-2.35-1.12-3.63-1.12s-2.49.37-3.63,1.12c-1.14.75-2.13,1.76-2.99,3.04-.85,1.28-1.53,2.77-2.03,4.48-.5,1.71-.75,3.52-.75,5.44s.25,3.73.75,5.44c.5,1.71,1.17,3.2,2.03,4.48.85,1.28,1.85,2.29,2.99,3.04,1.14.75,2.35,1.12,3.63,1.12h.21c1.85,0,3.61-.37,5.28-1.12,1.67-.75,3.15-1.72,4.43-2.93.28-.28.57-.43.85-.43.78,0,1.17.39,1.17,1.17,0,.43-.14.75-.43.96-1.49,1.42-3.22,2.56-5.17,3.41-1.96.85-4.07,1.28-6.35,1.28Z"/>
      <path class="cls-3" d="m312.29,122.59c2.56,0,4.96.48,7.2,1.44,2.24.96,4.2,2.29,5.87,4,1.67,1.71,2.99,3.68,3.95,5.92.96,2.24,1.44,4.64,1.44,7.2s-.48,4.96-1.44,7.2-2.28,4.21-3.95,5.92c-1.67,1.71-3.63,3.04-5.87,4-2.24.96-4.64,1.44-7.2,1.44h-13.01v15.04c0,.92-.34,1.72-1.01,2.4-.68.68-1.51,1.01-2.51,1.01-.92,0-1.72-.34-2.4-1.01-.68-.68-1.01-1.48-1.01-2.4v-48.64c0-.99.34-1.83,1.01-2.51s1.48-1.01,2.4-1.01h16.53Zm0,34.78c1.56,0,3.04-.43,4.43-1.28,1.39-.85,2.61-2.01,3.68-3.47,1.07-1.46,1.9-3.16,2.51-5.12.6-1.95.91-4.07.91-6.35s-.3-4.3-.91-6.29c-.6-1.99-1.44-3.72-2.51-5.17-1.07-1.46-2.29-2.61-3.68-3.47-1.39-.85-2.86-1.28-4.43-1.28h-13.01v32.43h13.01Z"/>
      <path class="cls-3" d="m337.26,133.79c0-1.14.39-2.1,1.17-2.88.78-.78,1.74-1.17,2.88-1.17s2.1.39,2.88,1.17c.78.78,1.17,1.74,1.17,2.88s-.39,2.08-1.17,2.83c-.78.75-1.74,1.12-2.88,1.12s-2.1-.37-2.88-1.12c-.78-.75-1.17-1.69-1.17-2.83Zm.53,15.47c0-.99.34-1.83,1.01-2.51s1.51-1.01,2.51-1.01,1.81.34,2.45,1.01c.64.68.96,1.51.96,2.51v25.5c0,.92-.32,1.72-.96,2.4-.64.68-1.46,1.01-2.45,1.01s-1.83-.34-2.51-1.01c-.68-.68-1.01-1.48-1.01-2.4v-25.5Z"/>
      <path class="cls-3" d="m352.19,149.26c0-.43.04-.82.11-1.17.07-.36.36-.78.85-1.28.57-.57,1.37-.89,2.4-.96,1.03-.07,1.87.25,2.51.96.64.64,1,1.28,1.07,1.92,1.28-.92,2.7-1.65,4.27-2.19,1.56-.53,3.24-.8,5.01-.8.36,0,.69.02,1.01.05.32.04.66.09,1.01.16.57,0,.96.11,1.17.32.43.57.43,1.14,0,1.71-.14.14-.32.21-.53.21-.14.07-.3.09-.48.05-.18-.04-.34-.05-.48-.05-.28-.07-.55-.11-.8-.11h-.69c-1.71,0-3.15.46-4.32,1.39-1.17.93-2.15,2.1-2.93,3.52-.78,1.42-1.35,2.93-1.71,4.53-.36,1.6-.53,3.08-.53,4.43v12.48c0,.36-.04.64-.11.85-.14.78-.52,1.44-1.12,1.97-.6.53-1.33.84-2.19.91-1.14,0-2.01-.37-2.61-1.12-.6-.75-.91-1.65-.91-2.72v-25.07Z"/>
      <path class="cls-3" d="m377.47,133.79c0-1.14.39-2.1,1.17-2.88.78-.78,1.74-1.17,2.88-1.17s2.1.39,2.88,1.17c.78.78,1.17,1.74,1.17,2.88s-.39,2.08-1.17,2.83c-.78.75-1.74,1.12-2.88,1.12s-2.1-.37-2.88-1.12c-.78-.75-1.17-1.69-1.17-2.83Zm.53,15.47c0-.99.34-1.83,1.01-2.51s1.51-1.01,2.51-1.01,1.81.34,2.45,1.01c.64.68.96,1.51.96,2.51v25.5c0,.92-.32,1.72-.96,2.4-.64.68-1.46,1.01-2.45,1.01s-1.83-.34-2.51-1.01c-.68-.68-1.01-1.48-1.01-2.4v-25.5Z"/>
    </g>
    <path class="cls-3" d="m209.44,206.74c-.98-1.27-2.59-1.98-4.18-1.98-3.88,0-6.45,3.1-6.45,7.03,0,3.64,2.42,6.74,6.45,6.74,1.98,0,3.49-.88,4.52-2.32l1.98,1.49c-.51.71-2.59,3.03-6.55,3.03-5.5,0-8.89-4.59-8.89-8.94,0-5.37,3.69-9.23,9.01-9.23,2.27,0,4.66.86,6.06,2.69l-1.95,1.49Z"/>
    <path class="cls-3" d="m220.19,203h2.13l7.4,17.29h-2.74l-1.73-4.27h-8.23l-1.71,4.27h-2.74l7.62-17.29Zm4.2,10.97l-3.22-7.94h-.05l-3.27,7.94h6.55Z"/>
    <path class="cls-3" d="m232.72,216.68c.83,1.27,2.27,1.86,3.66,1.86,1.54,0,3.44-.98,3.44-2.88,0-3.98-8.52-1.51-8.52-8.26,0-2.03,1.71-4.84,5.86-4.84,1.88,0,3.69.39,4.98,1.98l-1.91,1.73c-.59-.9-1.73-1.51-3.08-1.51-2.59,0-3.37,1.56-3.37,2.64,0,4.37,8.52,1.76,8.52,7.99,0,3.35-2.69,5.35-6.01,5.35-2.22,0-4.35-.76-5.52-2.39l1.93-1.66Z"/>
    <path class="cls-3" d="m250.81,203h2.13l7.4,17.29h-2.74l-1.73-4.27h-8.23l-1.71,4.27h-2.74l7.62-17.29Zm4.2,10.97l-3.22-7.94h-.05l-3.27,7.94h6.55Z"/>
    <g>
      <path class="cls-3" d="m283.08,203h6.03c7.3,0,9.09,5.45,9.09,8.65,0,4.42-3.3,8.65-9.48,8.65h-5.64v-17.29Zm2.34,15.09h2.96c3.96,0,7.33-2.17,7.33-6.45,0-2.2-1.15-6.45-6.77-6.45h-3.52v12.9Z"/>
      <path class="cls-3" d="m301.3,203h11.16v2.2h-8.82v5.15h8.21v2.2h-8.21v5.54h9.26v2.2h-11.6v-17.29Z"/>
      <path class="cls-3" d="m326.63,205.2h-5.57v-2.2h13.48v2.2h-5.57v15.09h-2.34v-15.09Z"/>
      <path class="cls-3" d="m336.73,203h11.16v2.2h-8.82v5.15h8.21v2.2h-8.21v5.54h9.26v2.2h-11.6v-17.29Z"/>
      <path class="cls-3" d="m351.11,203h3.49l5.5,13.09h.1l5.45-13.09h3.49v17.29h-2.34v-14.22h-.05l-5.84,14.22h-1.56l-5.84-14.22h-.05v14.22h-2.34v-17.29Z"/>
      <path class="cls-3" d="m373.2,203h6.08c4.42,0,5.54,2.66,5.54,4.84s-1.12,4.84-5.54,4.84h-3.74v7.62h-2.34v-17.29Zm2.34,7.62h3.08c1.86,0,3.71-.44,3.71-2.78s-1.86-2.78-3.71-2.78h-3.08v5.57Z"/>
      <path class="cls-3" d="m386.5,211.65c0-5.13,3.74-9.09,9.01-9.09s9.01,3.96,9.01,9.09-3.74,9.09-9.01,9.09-9.01-3.96-9.01-9.09Zm15.53,0c0-3.79-2.56-6.89-6.52-6.89s-6.52,3.1-6.52,6.89,2.56,6.89,6.52,6.89,6.52-3.1,6.52-6.89Z"/>
      <path class="cls-3" d="m407.65,203h6.08c4.42,0,5.54,2.66,5.54,4.84s-1.64,4.27-4.25,4.57l4.91,7.89h-2.93l-4.4-7.62h-2.61v7.62h-2.34v-17.29Zm2.34,7.62h3.08c1.86,0,3.71-.44,3.71-2.78s-1.86-2.78-3.71-2.78h-3.08v5.57Z"/>
      <path class="cls-3" d="m428.77,203h2.13l7.4,17.29h-2.74l-1.73-4.27h-8.23l-1.71,4.27h-2.74l7.62-17.29Zm4.2,10.97l-3.22-7.94h-.05l-3.27,7.94h6.55Z"/>
      <path class="cls-3" d="m440.19,203h6.03c7.3,0,9.09,5.45,9.09,8.65,0,4.42-3.3,8.65-9.48,8.65h-5.64v-17.29Zm2.34,15.09h2.96c3.96,0,7.33-2.17,7.33-6.45,0-2.2-1.15-6.45-6.77-6.45h-3.52v12.9Z"/>
      <path class="cls-3" d="m463.05,203h2.13l7.4,17.29h-2.74l-1.73-4.27h-8.23l-1.71,4.27h-2.74l7.62-17.29Zm4.2,10.97l-3.22-7.94h-.05l-3.27,7.94h6.55Z"/>
    </g>
    <path class="cls-3" d="m263.45,216.68c.83,1.27,2.27,1.86,3.66,1.86,1.54,0,3.44-.98,3.44-2.88,0-3.98-8.52-1.51-8.52-8.26,0-2.03,1.71-4.84,5.86-4.84,1.88,0,3.69.39,4.98,1.98l-1.91,1.73c-.59-.9-1.73-1.51-3.08-1.51-2.59,0-3.37,1.56-3.37,2.64,0,4.37,8.52,1.76,8.52,7.99,0,3.35-2.69,5.35-6.01,5.35-2.22,0-4.35-.76-5.52-2.39l1.93-1.66Z"/>
  </g>
</svg>